<?xml version="1.0" encoding="UTF-8"?>
<svg width="175px" height="140px" viewBox="0 0 175 140" version="1.1" xmlns="http://www.w3.org/2000/svg" xmlns:xlink="http://www.w3.org/1999/xlink">
    <!-- Generator: Sketch 58 (84663) - https://sketch.com -->
    <title>Icon/Not connected</title>
    <desc>Created with Sketch.</desc>
    <g id="Icon/Not-connected" stroke="none" stroke-width="1" fill="none" fill-rule="evenodd">
        <g id="编组">
            <rect id="矩形" fill="#D8D8D8" opacity="0" x="0" y="0" width="175" height="140"></rect>
            <path d="M93.1667832,97.1557844 C93.179582,97.1557845 101.665133,111.874313 101.677932,111.874313 C103.08089,114.304435 101.394356,117.323033 98.6341684,117.450384 L98.4526547,117.454554 L47.360164,117.454554 C44.5542488,117.454554 42.7781643,114.487662 44.0477487,112.045596 L44.1348865,111.887111 L52.6460354,97.1685831 C40.8840116,90.2316769 33,77.4585541 33,62.8424157 C33,40.8414159 50.8670134,23 72.9064094,23 C94.9458054,23 112.812819,40.8414159 112.812819,62.829617 C112.812819,70.1908751 110.809775,77.084648 107.320355,83.0008076 L113.633368,83.0010321 C119.134857,83.0655578 122.225142,85.6006057 122.225142,90.357906 C122.225142,95.1327034 119.110425,97.6097974 113.639312,97.5382172 L113.327115,97.5314419 L104.075234,97.5314419 L103.914278,97.5623517 C102.873795,97.7853012 102.480187,98.3517261 102.480187,99.6092346 C102.480187,101.653063 102.943449,102.312295 103.850217,102.358324 L103.956811,102.360957 L125.507164,102.360264 C126.302166,98.779484 129.496911,96.1019128 133.317037,96.1019128 C133.317037,95.549628 133.764752,95.1019128 134.317037,95.1019128 C134.869322,95.1019128 135.317037,95.549628 135.317037,96.1019128 L135.317037,99.1019128 L140.317037,99.1019128 C140.869322,99.1019128 141.317037,99.549628 141.317037,100.101913 C141.317037,100.654198 140.869322,101.101913 140.317037,101.101913 L135.317037,101.101913 L135.317037,107.101913 L140.317037,107.101913 C140.869322,107.101913 141.317037,107.549628 141.317037,108.101913 C141.317037,108.654198 140.869322,109.101913 140.317037,109.101913 L135.317037,109.101913 L135.317037,112.101913 C135.317037,112.654198 134.869322,113.101913 134.317037,113.101913 C133.764752,113.101913 133.317037,112.654198 133.317037,112.101913 C129.327088,112.101913 126.019358,109.180987 125.415522,105.360812 L103.956811,105.360957 C101.151116,105.360957 99.4801874,103.256218 99.4801874,99.6092346 C99.4801874,96.8719379 100.914327,95.0652056 103.491568,94.5884889 L103.736524,94.5477054 L103.956811,94.5314419 L113.372199,94.5321196 C117.526486,94.6570378 119.225142,93.3543413 119.225142,90.357906 C119.225142,87.3436434 117.501124,85.9785313 113.327115,86 L105.365072,85.9996825 C102.12637,90.5113776 97.968265,94.3209226 93.1667832,97.1557844 Z M72.9064094,39.9583041 C60.2356764,39.9583041 49.9711029,50.1972802 49.9711029,62.8424157 C49.9711029,75.4747525 60.2356765,85.7265274 72.9064094,85.7265274 C85.5771422,85.7265274 95.8417157,75.4747525 95.8417157,62.8424157 C95.8417157,50.210079 85.5771422,39.9583041 72.9064094,39.9583041 Z M72.9064094,48.6358364 C80.7520247,48.6358364 87.1257874,54.9840015 87.1257874,62.829617 C87.1257874,70.6752325 80.7520249,77.0233976 72.9064094,77.0233976 C65.0479951,77.0233976 58.6870312,70.6624337 58.6870312,62.829617 C58.6870312,62.1512849 58.7382261,61.4985501 58.8278171,60.8586141 C61.0803919,62.1384861 64.4720527,61.4089591 66.9422057,58.9388061 C69.7707229,56.1102889 70.3210679,52.0658934 68.1708829,49.9157084 C68.0556944,49.80052 67.9277071,49.6853315 67.7869212,49.5829417 C69.3739626,48.9686031 71.1017899,48.6358364 72.9064094,48.6358364 Z" id="形状结合" fill="#282727"></path>
        </g>
    </g>
</svg>