<?xml version="1.0" encoding="UTF-8"?>
<svg width="24px" height="20px" viewBox="0 0 24 20" version="1.1" xmlns="http://www.w3.org/2000/svg" xmlns:xlink="http://www.w3.org/1999/xlink">
    <!-- Generator: Sketch 58 (84663) - https://sketch.com -->
    <title>button/photograph</title>
    <desc>Created with Sketch.</desc>
    <g id="组件" stroke="none" stroke-width="1" fill="none" fill-rule="evenodd">
        <g id="button/photograph" transform="translate(-20.000000, -15.000000)" fill="#FFFFFF" fill-rule="nonzero">
            <g id="编组-4备份">
                <path d="M29.1965743,15 L34.8011527,15 C35.3512197,15 35.8549021,15.2948343 36.1218637,15.7614946 L36.1886593,15.8929333 L37.1910541,18.1264142 L41.4704712,18.1267421 C42.8118294,18.1267421 43.9068988,19.1591033 43.9943692,20.4628281 L44,20.627152 L44,32.4992622 C44,33.826483 42.9564901,34.9101198 41.6388247,34.9946872 L41.4727443,35 L22.5272558,35 C21.1858976,35 20.0908282,33.9673365 20.0053688,32.6635876 L20,32.4992622 L20,20.627152 C20,19.30182 21.0414151,18.2164455 22.3606367,18.1314459 L22.526931,18.1260862 L26.8066729,18.1260862 L27.8093924,15.8929333 C28.0338245,15.394245 28.5084606,15.0595066 29.047967,15.0071799 L29.1965743,15 L34.8011527,15 Z M31.9991882,21.3659616 C29.2780777,21.3659616 27.0648212,23.5561568 27.0648212,26.2484014 C27.0648212,28.9442532 29.2780777,31.1341204 31.9991882,31.1341204 C34.7202987,31.1341204 36.9335552,28.940646 36.9335552,26.2484014 C36.9335552,23.5558288 34.7202987,21.3659616 31.9991882,21.3659616 Z M32.0144498,22.8701426 C33.8078005,22.8701426 35.2615984,24.3383022 35.2615984,26.1493687 C35.2615984,27.9604353 33.8078005,29.4285948 32.0144498,29.4285948 C30.2210992,29.4285948 28.7673012,27.9604353 28.7673012,26.1493687 C28.7673012,24.3383022 30.2210992,22.8701426 32.0144498,22.8701426 Z M25.8448675,15.9837678 L25.8448675,17.2954583 L22.5977189,17.2954583 L22.5977189,15.9837678 L25.8448675,15.9837678 Z" id="button/photograph"></path>
            </g>
        </g>
    </g>
</svg>