<?xml version="1.0" encoding="UTF-8"?>
<svg width="27px" height="16px" viewBox="0 0 27 16" version="1.1" xmlns="http://www.w3.org/2000/svg" xmlns:xlink="http://www.w3.org/1999/xlink">
    <!-- Generator: Sketch 58 (84663) - https://sketch.com -->
    <title>button/transcribe</title>
    <desc>Created with Sketch.</desc>
    <g id="组件" stroke="none" stroke-width="1" fill="none" fill-rule="evenodd">
        <g id="button/transcribe" transform="translate(-18.000000, -17.000000)" fill="#FFFFFF">
            <g id="button/photograph">
                <g id="button/transcribe" transform="translate(18.000000, 17.000000)">
                    <path d="M21.4690909,3.88227273 L25.0036364,1.85318182 C25.6581818,1.46045455 26.1818182,1.78772727 26.1818182,2.44227273 L26.1818182,12.7186364 C26.1818182,13.4386364 25.6581818,13.7004545 25.0036364,13.3077273 L21.4690909,11.2786364 C20.8145455,10.8859091 20.2909091,10.4931818 20.2909091,9.83863636 L20.2909091,5.25681818 C20.2909091,4.60227273 20.8145455,4.275 21.4690909,3.88227273 Z M15.84,0.0204545455 L2.48727273,0.0204545455 C1.11272727,0.0204545455 0,1.13318182 0,2.50772727 L0,13.2422727 C0,14.6168182 1.11272727,15.7295455 2.48727273,15.7295455 L15.84,15.7295455 C17.2145455,15.7295455 18.3272727,14.6168182 18.3272727,13.2422727 L18.3272727,2.50772727 C18.3272727,1.13318182 17.2145455,0.0204545455 15.84,0.0204545455 Z M7.78909091,6.04227273 C7.59272727,6.95863636 6.87272727,7.67863636 6.02181818,7.875 C4.38545455,8.20227273 3.01090909,6.76227273 3.33818182,5.19136364 C3.53454545,4.275 4.25454545,3.555 5.10545455,3.42409091 C6.74181818,3.03136364 8.11636364,4.40590909 7.78909091,6.04227273 L7.78909091,6.04227273 Z" id="形状"></path>
                </g>
            </g>
        </g>
    </g>
</svg>