<?xml version="1.0" encoding="UTF-8"?>
<svg width="175px" height="140px" viewBox="0 0 175 140" version="1.1" xmlns="http://www.w3.org/2000/svg" xmlns:xlink="http://www.w3.org/1999/xlink">
    <!-- Generator: Sketch 58 (84663) - https://sketch.com -->
    <title>Icon/Take up_dark</title>
    <desc>Created with Sketch.</desc>
    <g id="Icon/Take-up_dark" stroke="none" stroke-width="1" fill="none" fill-rule="evenodd">
        <g id="编组">
            <rect id="矩形" fill="#D8D8D8" opacity="0" x="0" y="0" width="175" height="140"></rect>
            <path d="M87.7940604,23 C109.833456,23 127.70047,40.8414159 127.70047,62.829617 C127.70047,71.4744315 124.937998,79.4745201 120.249858,86.0036732 L141.289575,98.1519238 C142.724453,98.9803509 143.216078,100.815122 142.387651,102.25 C141.559224,103.684878 139.724453,104.176503 138.289575,103.348076 L116.329371,90.6695494 C113.875555,93.1761173 111.093902,95.36124 108.054434,97.1557844 C108.067233,97.1557845 116.552784,111.874313 116.565583,111.874313 C117.968541,114.304435 116.282007,117.323033 113.521819,117.450384 L113.340306,117.454554 L62.247815,117.454554 C59.4418998,117.454554 57.6658152,114.487662 58.9353997,112.045596 L59.0225375,111.887111 L67.5336864,97.1685831 C55.7716626,90.2316769 47.887651,77.4585541 47.887651,62.8424157 C47.887651,59.0902254 48.407332,55.4590209 49.3787616,52.0166713 L33.5005009,42.8480762 C32.0656231,42.0196491 31.5739976,40.1848779 32.4024247,38.75 C33.2308518,37.3151221 35.0656231,36.8234967 36.5005009,37.6519238 L51.4798202,46.300277 C57.7727842,32.5538499 71.6662935,23 87.7940604,23 Z M64.8587539,62.8424157 C64.8587539,75.4747525 75.1233275,85.7265274 87.7940604,85.7265274 C92.6203381,85.7265274 97.0975194,84.2391533 100.791327,81.6993892 L91.7356902,76.4707149 C90.4838062,76.8306131 89.1612823,77.0233976 87.7940604,77.0233976 C81.1083772,77.0233976 75.5065565,72.4192984 73.9835012,66.2217654 L64.932266,60.9955559 C64.8835693,61.604738 64.8587539,62.2206683 64.8587539,62.8424157 Z M87.7940604,39.9583041 C77.9396342,39.9583041 69.5406122,46.1515131 66.2937752,54.8531917 L77.5293888,61.3402477 C79.0190895,61.033187 80.5484631,60.2201998 81.8298567,58.9388061 C84.6583739,56.1102889 85.2087189,52.0658934 83.0585339,49.9157084 C82.9433454,49.80052 82.8153581,49.6853315 82.6745722,49.5829417 C84.2616136,48.9686031 85.9894409,48.6358364 87.7940604,48.6358364 C95.6396757,48.6358364 102.013438,54.9840015 102.013438,62.829617 C102.013438,66.8171822 100.366955,70.4179229 97.7175748,72.9949731 L105.44374,77.4560138 C108.744801,73.4911805 110.729367,68.3969285 110.729367,62.8424157 C110.729367,50.210079 100.464793,39.9583041 87.7940604,39.9583041 Z" id="形状结合" fill="#323232"></path>
        </g>
    </g>
</svg>