<?xml version="1.0" encoding="UTF-8"?>
<svg width="251px" height="152px" viewBox="0 0 251 152" version="1.1" xmlns="http://www.w3.org/2000/svg" xmlns:xlink="http://www.w3.org/1999/xlink">
    <title>插图</title>
    <defs>
        <filter x="-40.9%" y="-25.8%" width="181.8%" height="175.2%" filterUnits="objectBoundingBox" id="filter-1">
            <feOffset dx="0" dy="6" in="SourceAlpha" result="shadowOffsetOuter1"></feOffset>
            <feGaussianBlur stdDeviation="5" in="shadowOffsetOuter1" result="shadowBlurOuter1"></feGaussianBlur>
            <feColorMatrix values="0 0 0 0 0   0 0 0 0 0   0 0 0 0 0  0 0 0 0.100186984 0" type="matrix" in="shadowBlurOuter1" result="shadowMatrixOuter1"></feColorMatrix>
            <feMerge>
                <feMergeNode in="shadowMatrixOuter1"></feMergeNode>
                <feMergeNode in="SourceGraphic"></feMergeNode>
            </feMerge>
        </filter>
        <filter x="-37.0%" y="-27.3%" width="173.9%" height="181.8%" filterUnits="objectBoundingBox" id="filter-2">
            <feOffset dx="0" dy="6" in="SourceAlpha" result="shadowOffsetOuter1"></feOffset>
            <feGaussianBlur stdDeviation="5" in="shadowOffsetOuter1" result="shadowBlurOuter1"></feGaussianBlur>
            <feColorMatrix values="0 0 0 0 0   0 0 0 0 0   0 0 0 0 0  0 0 0 0.100186984 0" type="matrix" in="shadowBlurOuter1" result="shadowMatrixOuter1"></feColorMatrix>
            <feMerge>
                <feMergeNode in="shadowMatrixOuter1"></feMergeNode>
                <feMergeNode in="SourceGraphic"></feMergeNode>
            </feMerge>
        </filter>
    </defs>
    <g id="相机被遮挡-" stroke="none" stroke-width="1" fill="none" fill-rule="evenodd">
        <g id="相机-摄像头被遮挡" transform="translate(-558, -430)">
            <g id="编组-3" transform="translate(283, 211)">
                <g id="插图" transform="translate(322, 239)">
                    <g id="编组" transform="translate(-2, -1)">
                        <g>
                            <path d="M27.1144574,1.00143575 L130.590287,1 C132.819084,1 133.627299,1.23206403 134.442114,1.66783176 C135.256929,2.10359949 135.896401,2.74307093 136.332168,3.55788574 L136.445942,3.78101661 C136.808212,4.53138919 137,5.38353405 137,7.409713 L137,72.590287 L136.994268,73.1639919 C136.956123,74.9660867 136.728321,75.7013735 136.332168,76.4421143 C135.896401,77.2569291 135.256929,77.8964005 134.442114,78.3321682 L134.218983,78.4459422 C133.468611,78.8082115 132.616466,79 130.590287,79 L27.409713,79 L26.8360081,78.9942677 C25.0339133,78.956123 24.2986265,78.7283207 23.5578857,78.3321682 C22.7430709,77.8964005 22.1035995,77.2569291 21.6678318,76.4421143 L21.5540578,76.2189834 C21.2099019,75.5061294 21.019605,74.701426 21.0014357,72.8855426 L21,7.409713 C21,5.18091615 21.232064,4.37270056 21.6678318,3.55788574 C22.1035995,2.74307093 22.7430709,2.10359949 23.5578857,1.66783176 L23.7810166,1.55405783 C24.4938706,1.20990192 25.298574,1.01960505 27.1144574,1.00143575 Z" id="矩形" fill="#D3D3D3"></path>
                            <path d="M2.25339972,107.914432 L155.756583,107.914432 L155.756583,109 C155.756583,111.209139 153.965722,113 151.756583,113 L6.25339972,113 C4.04426072,113 2.25339972,111.209139 2.25339972,109 L2.25339972,107.914432 Z" id="矩形-2" fill="#838383"></path>
                            <path d="M4.65260756,111 L153.347392,111 C154.722581,111 155.837392,109.885189 155.837392,108.51 C155.837392,108.018412 155.691882,107.537823 155.419198,107.128797 L138.105119,81.1576778 C137.263701,79.8955514 136.898641,79.490321 136.425119,79.098836 C135.951596,78.7073509 135.438298,78.4326419 134.8499,78.2558042 L134.642582,78.1974239 C134.155767,78.0705421 133.620141,78.0085282 132.462694,78.0008236 L25.7950564,78 C24.2781693,78 23.7384986,78.0789665 23.1501003,78.2558042 C22.561702,78.4326419 22.0484036,78.7073509 21.5748811,79.098836 L21.4113068,79.2389508 C21.0356982,79.5736243 20.6869873,79.9848934 20.0385411,80.9436731 L2.58080233,107.128797 C1.8179847,108.273023 2.12717764,109.818988 3.27140407,110.581805 C3.68043019,110.854489 4.16101934,111 4.65260756,111 Z" id="矩形" fill="#BCBCBC"></path>
                            <path d="M25.0919024,81 L133.408098,81 C134.088625,81 134.722454,81.3460397 135.090455,81.9184848 L142.509513,93.4592424 C142.808165,93.9238125 142.673662,94.5425263 142.209092,94.8411785 C142.047795,94.9448696 141.860086,95 141.668335,95 L16.8316655,95 C16.2793807,95 15.8316655,94.5522847 15.8316655,94 C15.8316655,93.8082484 15.8867959,93.6205397 15.990487,93.4592424 L23.4095455,81.9184848 C23.7775459,81.3460397 24.4113749,81 25.0919024,81 Z" id="矩形-4" fill="#A7A7A7"></path>
                            <path d="M55.2207592,98 L102.279241,98 C102.709671,98 103.09181,98.2754301 103.227924,98.6837722 L105.780629,106.341886 C105.867953,106.603858 105.726373,106.887018 105.464401,106.974342 C105.413418,106.991336 105.360028,107 105.306287,107 L52.1937129,107 C51.9175706,107 51.6937129,106.776142 51.6937129,106.5 C51.6937129,106.446259 51.7023769,106.392869 51.7193713,106.341886 L54.2720759,98.6837722 C54.40819,98.2754301 54.7903288,98 55.2207592,98 Z" id="矩形-4" fill="#A7A7A7"></path>
                            <path d="M61,112 L97,112 C98.0543618,112 98.9181651,111.184122 98.9945143,110.149262 L99,110 L59,110 C59,111.104569 59.8954305,112 61,112 Z" id="矩形" fill="#BCBCBC"></path>
                            <polygon id="矩形" fill-opacity="0.5" fill="#000000" points="26 9 132 9 132 72 26 72"></polygon>
                            <circle id="椭圆形-2" fill="#949494" cx="78.9958561" cy="5.5" r="1.5"></circle>
                        </g>
                        <g filter="url(#filter-1)" transform="translate(57, 34.5)">
                            <path d="M22,-0.5 C34.1502645,-0.5 44,9.3497355 44,21.5 C44,32.5927415 35.7902319,41.7679889 25.1153089,43.2811291 L22,48.3647786 L18.8846911,43.2811291 C8.20976805,41.7679889 -2.27373675e-13,32.5927415 -2.27373675e-13,21.5 C-2.27373675e-13,9.3497355 9.8497355,-0.5 22,-0.5 Z" id="路径" fill="#696969"></path>
                            <path d="M35,33.5 C36.1045695,33.5 37.0002964,34.3954305 37.0002964,35.5 L37.0002964,37.5933161 C33.7873949,40.5893111 29.6763694,42.6346116 25.1153089,43.2811291 L22,48.3647786 L18.8846911,43.2811291 C14.3236306,42.6346116 10.2126051,40.5893111 6.99970358,37.5933161 L6.99970358,35.5 C6.99970358,34.3954305 7.8954305,33.5 9,33.5 L35,33.5 Z M44,21.5 C44,25.1012266 43.1347253,28.5003575 41.6007361,31.5008325 L40,31.5 C38.8954305,31.5 38,30.6045695 38,29.5 L38,11.5 C38,10.3954305 38.8954305,9.5 40,9.5 L40.442154,9.5 C42.6923223,12.9511332 44,17.0728543 44,21.5 Z M34,9.5 C35.1045695,9.5 36,10.3954305 36,11.5 L36,29.5 C36,30.6045695 35.1045695,31.5 34,31.5 L10,31.5 C8.8954305,31.5 8,30.6045695 8,29.5 L8,11.5 C8,10.3954305 8.8954305,9.5 10,9.5 L34,9.5 Z M4,9.5 C5.1045695,9.5 6,10.3954305 6,11.5 L6,29.5 C6,30.6045695 5.1045695,31.5 4,31.5 L2.39926395,31.5008325 C0.865274696,28.5003575 -2.62900812e-13,25.1012266 -2.62900812e-13,21.5 C-2.62900812e-13,17.0728543 1.30767773,12.9511332 3.557846,9.5 L4,9.5 Z" id="形状" fill="#D3D3D3"></path>
                            <path d="M25.1283721,13.4922431 C25.400781,13.4922431 25.7121054,13.6089897 25.9845144,13.8035675 C26.2569233,13.9981453 26.451501,14.2316386 26.5682477,14.5040475 L26.9963188,15.5351002 L28.8642655,15.5351002 C29.4479988,15.5351002 29.953901,15.729678 30.3819721,16.1577491 C30.8100432,16.5858202 31.004621,17.0917224 31.004621,17.6754557 L31.004621,25.3779457 C31.004621,25.9616791 30.8100432,26.4675813 30.3819721,26.8956524 C29.953901,27.3237235 29.4479988,27.5183013 28.8642655,27.5183013 L16.1629625,27.5183013 C15.5792291,27.5183013 15.0733269,27.3237235 14.6452558,26.8956524 C14.2171847,26.4675813 14.0226069,25.961679 14.0226069,25.3779457 L14.0226069,17.6754557 C14.0226069,17.0917224 14.2171847,16.5858202 14.6452558,16.1577491 C15.0733269,15.729678 15.5792291,15.5351002 16.1629625,15.5351002 L18.0698247,15.5351002 L18.5368114,14.5040475 C18.653558,14.2316386 18.8481358,13.9981453 19.1205447,13.8035675 C19.3929536,13.6089897 19.6653625,13.4922431 19.9766869,13.4922431 L25.1283721,13.4922431 Z M22.4995598,18.0319863 C20.5767247,18.0319863 19,19.608711 19,21.531546 C19,23.454381 20.5767247,25.0311058 22.4995598,25.0311058 C24.4223948,25.0311058 25.9991195,23.454381 25.9991195,21.531546 C25.9991195,19.608711 24.4223948,18.0319863 22.4995598,18.0319863 Z M22.4997993,19.0319863 C23.8931301,19.0319863 24.9995986,20.1384548 24.9995986,21.5317856 C24.9995986,22.9251164 23.8931301,24.0315849 22.4997993,24.0315849 C21.1064685,24.0315849 20,22.9251164 20,21.5317856 C20,20.1384548 21.1064685,19.0319863 22.4997993,19.0319863 Z" id="形状" fill-opacity="0.947918237" fill="#696969" fill-rule="nonzero"></path>
                            <path d="M22,-0.5 C34.1502645,-0.5 44,9.3497355 44,21.5 C44,32.5927415 35.7902319,41.7679889 25.1153089,43.2811291 L22,48.3647786 L18.8846911,43.2811291 C8.20976805,41.7679889 -2.27373675e-13,32.5927415 -2.27373675e-13,21.5 C-2.27373675e-13,9.3497355 9.8497355,-0.5 22,-0.5 Z M22,0.5 C10.4020203,0.5 1,9.90202025 1,21.5 C1,31.9906231 8.73930563,40.8330532 19.0250353,42.2910263 L19.4912787,42.357115 L19.7373279,42.7586251 L22,46.4509176 L24.2626721,42.7586251 L24.5087213,42.357115 L24.9749647,42.2910263 C35.2606944,40.8330532 43,31.9906231 43,21.5 C43,9.90202025 33.5979797,0.5 22,0.5 Z" id="形状结合" fill="#F6F6F6" fill-rule="nonzero"></path>
                        </g>
                        <g filter="url(#filter-2)" transform="translate(147.2966, 64.0406)">
                            <path d="M26.7033659,0 C38.8536304,0 48.7033659,9.8497355 48.7033659,22 C48.7033659,34.1502645 38.8536304,44 26.7033659,44 C15.573239,44 6.3735529,35.7348006 4.90719912,25.0072933 L3.45292231e-14,22 L4.90719912,18.9927067 C6.3735529,8.26519942 15.573239,0 26.7033659,0 Z" id="路径" fill="#696969"></path>
                            <path d="M26.7033659,-5.1159077e-13 C29.9099454,-5.1159077e-13 32.9562961,0.686020519 35.7036563,1.9192997 L35.7036563,42.0807003 C33.3361671,43.1434569 30.7466528,43.7998287 28.023908,43.9613253 L25.3879758,43.9613253 C22.6630877,43.8006412 20.0715673,43.1440028 17.7024028,42.0803983 L17.7024028,1.91960171 C20.4499385,0.686132519 23.4965248,-5.1159077e-13 26.7033659,-5.1159077e-13 Z" id="路径" fill="#D3D3D3"></path>
                            <path d="M26.7033659,0 C38.8536304,0 48.7033659,9.8497355 48.7033659,22 C48.7033659,34.1502645 38.8536304,44 26.7033659,44 C15.573239,44 6.3735529,35.7348006 4.90719912,25.0072933 L7.10542736e-14,22 L4.90719912,18.9927067 C6.3735529,8.26519942 15.573239,0 26.7033659,0 Z M26.7033659,1 C16.1743084,1 7.31044288,8.79492705 5.89798581,19.1281383 L5.83380109,19.5976989 L5.42971762,19.8453346 L1.91380784,22 L5.42971762,24.1546654 L5.83380109,24.4023011 L5.89798581,24.8718617 C7.31044288,35.205073 16.1743084,43 26.7033659,43 C38.3013457,43 47.7033659,33.5979797 47.7033659,22 C47.7033659,10.4020203 38.3013457,1 26.7033659,1 Z" id="形状结合" fill="#F6F6F6" fill-rule="nonzero"></path>
                            <path d="M30.7033659,15.9594418 L30.7033659,29.9594418 C30.7033659,32.1685808 28.9125049,33.9594418 26.7033659,33.9594418 C24.4942269,33.9594418 22.7033659,32.1685808 22.7033659,29.9594418 L22.7033659,15.9594418 C22.7033659,13.7503028 24.4942269,11.9594418 26.7033659,11.9594418 C28.9125049,11.9594418 30.7033659,13.7503028 30.7033659,15.9594418 Z" id="矩形-3" fill="#B5B5B5"></path>
                            <path d="M30.7033659,29.9594418 C30.7033659,32.1685808 28.9125049,33.9594418 26.7033659,33.9594418 C24.4942269,33.9594418 22.7033659,32.1685808 22.7033659,29.9594418 L22.7033659,15.9594418 C22.7033659,13.7503028 24.4942269,11.9594418 26.7033659,11.9594418 C28.9125049,11.9594418 30.7033659,13.7503028 30.7033659,15.9594418 L30.7033659,29.9594418 Z M29.2033659,29.9594418 L29.2045852,24.0811495 C28.5195989,24.6306927 27.6498742,24.9594418 26.7033659,24.9594418 C25.7573226,24.9594418 24.8879874,24.6310155 24.2031561,24.081959 L24.2033659,29.9594418 C24.2033659,31.3401536 25.3226541,32.4594418 26.7033659,32.4594418 C28.0840778,32.4594418 29.2033659,31.3401536 29.2033659,29.9594418 Z" id="形状" fill="#696969" fill-rule="nonzero"></path>
                        </g>
                    </g>
                </g>
            </g>
        </g>
    </g>
</svg>